<svg width="50pt" height="50pt" viewBox="0 0 260.000000 280"
 preserveAspectRatio="xMidYMid meet"> <g transform="translate(0.000000,280.000000) scale(0.100000,-0.100000)"
fill="#000000" stroke="none">
<path d="M1105 2786 c-301 -51 -540 -177 -747 -395 -173 -182 -281 -387 -335
-641 -25 -119 -25 -381 0 -500 59 -273 181 -495 377 -683 188 -181 392 -289
650 -344 119 -25 381 -25 500 0 258 55 462 163 649 343 197 189 319 410 378
684 25 119 25 381 0 500 -59 274 -181 495 -378 684 -184 177 -390 287 -639
341 -103 22 -353 28 -455 11z m455 -95 c634 -145 1041 -738 945 -1374 -123
-820 -1020 -1279 -1760 -902 -697 356 -881 1269 -377 1870 190 227 461 376
767 425 92 14 326 4 425 -19z"/>
<path d="M1468 1657 c-411 -238 -743 -436 -738 -440 4 -5 26 -13 49 -18 57
-13 124 6 166 45 l33 31 36 -31 c75 -65 183 -64 252 1 l34 32 34 -32 c70 -65
176 -66 253 -1 l38 33 21 -26 22 -27 -207 -119 c-113 -65 -283 -163 -377 -218
l-171 -98 -169 97 c-93 53 -200 115 -237 136 l-69 40 114 65 c62 35 124 71
137 80 l23 15 -28 29 c-27 28 -28 28 -41 9 -24 -34 -93 -64 -149 -63 -57 0
-85 12 -131 56 -27 26 -33 28 -39 14 -8 -21 -62 -55 -113 -70 l-40 -12 25 -70
c71 -205 203 -392 372 -527 141 -112 281 -180 462 -226 91 -23 126 -26 265
-26 168 -1 221 7 364 51 341 106 637 397 750 738 l20 60 -40 12 c-51 15 -105
49 -113 70 -6 14 -12 12 -39 -14 -46 -44 -74 -56 -132 -57 -39 0 -62 6 -99 28
-26 15 -50 34 -53 42 -4 12 -12 9 -37 -14 -45 -43 -74 -55 -130 -55 -55 0
-111 17 -102 32 3 5 93 59 201 121 107 61 204 119 214 128 16 14 31 76 75 308
62 322 59 304 49 303 -5 0 -344 -195 -755 -432z"/>
<path d="M654 2060 c-18 -6 -67 -42 -110 -82 -44 -39 -92 -79 -109 -89 -21
-14 -25 -19 -12 -19 36 0 127 39 190 83 78 53 148 73 201 59 42 -12 45 -4 11
28 -19 18 -39 24 -83 26 -31 2 -71 -1 -88 -6z"/>
<path d="M1080 2023 c-25 -14 -46 -27 -48 -29 -3 -2 83 -158 95 -173 3 -5 81
35 97 50 8 7 -82 179 -94 179 -3 0 -25 -12 -50 -27z"/>
<path d="M918 1930 c-27 -17 -48 -33 -48 -37 0 -5 82 -151 96 -171 1 -2 25 11
53 28 l52 32 -22 37 c-12 20 -35 60 -51 89 -17 28 -31 52 -31 52 -1 0 -23 -14
-49 -30z"/>
<path d="M1210 1820 c-113 -66 -209 -121 -215 -123 -6 -3 -1 -21 12 -44 l21
-39 -111 -65 -112 -65 -38 -78 c-21 -43 -36 -80 -34 -82 2 -2 546 309 965 553
24 13 42 26 40 28 -2 2 -59 8 -128 14 -69 6 -141 13 -160 16 -30 4 -62 -12
-240 -115z"/>
</g>
</svg>